<?xml version="1.0" standalone="no"?>
<!DOCTYPE svg PUBLIC "-//W3C//DTD SVG 20010904//EN"
 "http://www.w3.org/TR/2001/REC-SVG-20010904/DTD/svg10.dtd">
<svg version="1.0" xmlns="http://www.w3.org/2000/svg"
 width="980.000000pt" height="980.000000pt" viewBox="0 0 980.000000 980.000000"
 preserveAspectRatio="xMidYMid meet">
<metadata>
Created by potrace 1.11, written by Peter Selinger 2001-2013
</metadata>
<g transform="translate(0.000000,980.000000) scale(0.100000,-0.100000)"
fill="#000000" stroke="none">
<path d="M4155 9793 c-78 -10 -263 -48 -390 -79 -267 -67 -471 -142 -691 -252
-258 -129 -222 -144 216 -86 102 13 201 27 220 30 19 2 -66 -31 -190 -74 -306
-108 -369 -132 -558 -220 -101 -46 -158 -78 -150 -82 7 -4 56 -10 108 -14 145
-10 270 -49 270 -82 0 -15 -15 -20 -100 -33 -97 -16 -166 -38 -254 -84 -80
-42 -206 -147 -206 -173 0 -8 1 -14 3 -14 1 0 34 7 72 15 83 17 267 20 298 4
49 -25 76 -62 88 -117 9 -47 5 -137 -25 -551 -20 -273 -40 -521 -44 -551 l-7
-55 -42 3 c-42 4 -43 3 -43 -28 0 -38 39 -80 73 -80 20 0 26 6 31 36 6 27 11
34 25 29 61 -19 396 -115 402 -115 5 0 16 14 25 32 25 49 202 226 269 270 93
61 178 83 315 82 271 -2 429 -93 599 -346 l71 -108 238 1 c130 1 282 4 337 8
l100 6 39 72 c147 274 415 409 711 361 150 -25 237 -72 352 -191 50 -51 101
-112 114 -135 13 -23 31 -42 39 -42 26 0 140 29 282 72 l136 40 6 52 c42 344
57 747 37 1004 -23 291 -103 505 -269 714 -184 232 -504 381 -937 438 -153 20
-287 55 -460 118 -160 59 -329 102 -460 117 -119 14 -562 19 -650 8z"/>
<path d="M3785 7533 c-101 -13 -235 -83 -315 -163 -56 -56 -114 -148 -140
-223 -27 -77 -38 -246 -21 -328 44 -210 246 -407 451 -439 229 -35 382 12 535
165 90 90 127 152 150 246 17 74 20 222 5 300 -24 126 -117 261 -236 342 -84
57 -154 83 -264 96 -84 11 -109 12 -165 4z"/>
<path d="M5748 7530 c-121 -19 -244 -86 -332 -181 -105 -113 -153 -257 -142
-429 7 -112 22 -173 64 -257 98 -192 310 -304 552 -290 120 7 212 36 292 91
106 72 198 205 233 336 20 73 19 227 -1 304 -50 193 -215 363 -399 410 -79 20
-196 27 -267 16z"/>
<path d="M6901 7344 c-23 -29 -24 -34 -15 -58 16 -41 109 11 102 57 -5 35 -59
36 -87 1z"/>
<path d="M2690 7228 c-71 -37 -84 -64 -88 -174 -12 -322 105 -750 306 -1122
79 -146 143 -230 195 -255 62 -31 85 -93 188 -512 65 -268 100 -368 155 -451
56 -84 167 -181 346 -302 93 -63 177 -125 188 -139 12 -15 20 -41 20 -63 l0
-37 61 -7 c80 -8 1557 -8 1627 0 l52 7 0 46 c0 29 7 54 18 67 9 11 83 64 163
117 156 102 293 222 365 320 52 71 79 149 164 486 87 346 131 461 175 461 48
0 215 267 318 510 113 266 188 598 190 840 1 123 -11 155 -74 197 -85 56 -170
42 -395 -66 l-141 -68 -6 -109 c-12 -207 -71 -347 -202 -480 -64 -65 -97 -90
-165 -122 -116 -57 -184 -73 -315 -73 -172 -1 -307 40 -421 127 -127 97 -192
212 -224 398 -24 136 -37 166 -82 194 -126 77 -420 68 -500 -15 -37 -38 -54
-84 -72 -190 -35 -198 -97 -305 -229 -395 -142 -96 -251 -124 -462 -115 -108
4 -140 9 -191 30 -81 33 -166 91 -236 163 -143 146 -182 241 -195 464 l-6 115
-153 74 c-229 109 -289 122 -374 79z"/>
<path d="M3145 3839 c-387 -4 -615 -11 -642 -18 -56 -15 -154 -82 -203 -139
-22 -26 -54 -74 -70 -107 l-30 -60 -6 -365 c-4 -201 -3 -853 1 -1450 l7 -1085
147 -64 c744 -328 1384 -488 2155 -542 222 -15 808 -6 1011 15 717 77 1337
246 1954 530 l153 71 -1 1440 -2 1439 -37 69 c-48 90 -146 188 -227 228 l-63
31 -553 8 c-645 11 -2725 10 -3594 -1z m2331 -1924 c17 -40 18 -86 4 -137
l-11 -37 -392 -3 c-494 -4 -721 2 -739 20 -14 14 -19 155 -5 168 17 18 118 22
610 23 l518 1 15 -35z"/>
<path d="M7920 1920 c0 -914 2 -1120 13 -1120 57 0 733 473 981 685 l79 68 -6
136 c-6 146 -43 386 -76 491 -29 92 -109 207 -236 339 -122 126 -220 208 -370
310 -115 78 -354 211 -380 211 -3 0 -5 -504 -5 -1120z"/>
<path d="M1705 2944 c-391 -227 -654 -464 -770 -695 -41 -81 -73 -231 -106
-492 l-23 -177 50 -51 c97 -100 333 -285 589 -461 111 -76 412 -268 420 -268
8 0 6 1917 -2 2078 -4 92 -10 142 -17 142 -6 0 -69 -34 -141 -76z"/>
</g>
</svg>
